<?xml version="1.0" standalone="no"?>
<!DOCTYPE svg PUBLIC "-//W3C//DTD SVG 20010904//EN"
 "http://www.w3.org/TR/2001/REC-SVG-20010904/DTD/svg10.dtd">
<svg version="1.0" xmlns="http://www.w3.org/2000/svg"
 width="320.000000pt" height="320.000000pt" viewBox="0 0 320.000000 320.000000"
 preserveAspectRatio="xMidYMid meet">

<g transform="translate(0.000000,320.000000) scale(0.100000,-0.100000)"
fill="#000000" stroke="none">
<path d="M477 2733 l-467 -467 0 -660 0 -661 468 -468 467 -467 660 0 660 0
468 468 467 467 0 660 0 660 -468 468 -467 467 -661 0 -661 0 -466 -467z
m2095 -170 l398 -398 0 -570 0 -570 -397 -397 -398 -398 -565 0 -565 0 -402
402 -403 403 0 565 0 565 397 397 398 398 570 0 570 0 397 -397z"/>
<path d="M768 2470 l-358 -355 0 -510 0 -510 353 -353 352 -352 203 0 202 0 0
455 0 455 -140 0 -140 0 0 -312 0 -313 -275 275 -275 275 0 380 0 380 275 275
275 275 0 -308 0 -307 140 0 140 0 0 450 0 449 -197 3 -198 3 -357 -355z"/>
<path d="M1998 2723 l-97 -98 144 -150 144 -150 1 -735 0 -735 -88 -88 c-48
-48 -91 -87 -95 -87 -4 0 -7 47 -7 105 l0 105 -140 0 -140 0 0 -250 0 -250
197 0 198 0 177 177 178 178 0 650 0 650 125 -125 125 -125 0 195 -1 195 -312
318 -312 319 -97 -99z"/>
</g>
</svg>
